<svg xmlns="http://www.w3.org/2000/svg" width="26.163" height="26.162" viewBox="0 0 26.163 26.162">
  <g id="Group_5633" data-name="Group 5633" transform="translate(-1469.634 -465.557)">
    <ellipse id="Ellipse_761" data-name="Ellipse 761" cx="10" cy="10.5" rx="10" ry="10.5" transform="translate(1474 468)" fill="#fff"/>
    <path id="Icon_awesome-arrow-alt-circle-down" data-name="Icon awesome-arrow-alt-circle-down" d="M26.162,13.081A13.081,13.081,0,1,1,13.081,0,13.079,13.079,0,0,1,26.162,13.081ZM10.76,6.963v6.119H7.021a.633.633,0,0,0-.448,1.081l6.061,6.029a.627.627,0,0,0,.891,0l6.061-6.029a.633.633,0,0,0-.448-1.081H15.4V6.963a.635.635,0,0,0-.633-.633H11.393A.635.635,0,0,0,10.76,6.963Z" transform="translate(1469.634 491.719) rotate(-90)" fill="#48abc3"/>
  </g>
</svg>
